<svg width="40" height="40" viewBox="0 0 40 40" fill="none" xmlns="http://www.w3.org/2000/svg">
<path d="M38.9215 18.1416C39.37 17.7915 39.7027 17.3031 39.8729 16.7449C40.0431 16.1867 40.0423 15.5867 39.8707 15.029C39.699 14.4713 39.3651 13.9838 38.9157 13.635C38.4663 13.2862 37.924 13.0935 37.3648 13.0839L26.5043 12.654C26.4509 12.6501 26.3997 12.6302 26.3568 12.5965C26.314 12.5629 26.2814 12.517 26.2629 12.4643L22.51 1.8431C22.3214 1.30273 21.979 0.836129 21.5289 0.506465C21.0789 0.176801 20.5431 0 19.994 0C19.4449 0 18.909 0.176801 18.459 0.506465C18.009 0.836129 17.6665 1.30273 17.4779 1.8431L13.7371 12.5023C13.7186 12.5549 13.686 12.6008 13.6431 12.6344C13.6003 12.6681 13.5491 12.6881 13.4957 12.6919L2.63519 13.1218C2.076 13.1314 1.53369 13.3241 1.08429 13.6729C0.634902 14.0217 0.300967 14.5092 0.129309 15.0669C-0.0423477 15.6246 -0.0431179 16.2247 0.127107 16.7829C0.297332 17.3411 0.630015 17.8295 1.07851 18.1795L9.59801 25.1971C9.64064 25.2323 9.67251 25.2798 9.68967 25.3337C9.70683 25.3877 9.70852 25.4457 9.69454 25.5006L6.7622 36.3874C6.61024 36.9417 6.62496 37.5317 6.80436 38.077C6.98375 38.6223 7.31911 39.0965 7.7648 39.435C8.2105 39.7735 8.7449 39.9599 9.2953 39.9689C9.84571 39.9779 10.3854 39.809 10.8409 39.4852L19.8431 33.1631C19.8875 33.131 19.9401 33.1138 19.994 33.1138C20.0479 33.1138 20.1005 33.131 20.1448 33.1631L29.147 39.4852C29.5964 39.8201 30.1341 40 30.6856 40C31.237 40 31.7748 39.8201 32.2242 39.4852C32.67 39.1499 33.0056 38.678 33.185 38.1346C33.3644 37.5912 33.3786 37.0028 33.2257 36.4506L30.2693 25.5259C30.2536 25.4711 30.2545 25.4125 30.2717 25.3582C30.289 25.3039 30.3219 25.2565 30.3658 25.2224L38.9215 18.1416Z" fill="white"/>
</svg>
