<svg width="25" height="25" viewBox="0 0 25 25" fill="none" xmlns="http://www.w3.org/2000/svg">
<g clip-path="url(#clip0_23_67)">
<path d="M10.1564 25.0002C9.90953 25.0015 9.66813 24.9274 9.46448 24.7878C9.26084 24.6482 9.10465 24.4497 9.01678 24.219L7.07147 19.1604C7.03207 19.0585 6.9718 18.9659 6.89453 18.8886C6.81725 18.8113 6.72468 18.7511 6.62274 18.7117L1.56268 16.7649C1.33219 16.6764 1.13393 16.5201 0.994087 16.3167C0.854241 16.1132 0.779378 15.8721 0.779378 15.6252C0.779378 15.3783 0.854241 15.1373 0.994087 14.9338C1.13393 14.7303 1.33219 14.574 1.56268 14.4856L6.62128 12.5403C6.72321 12.5009 6.81578 12.4406 6.89306 12.3633C6.97034 12.2861 7.03061 12.1935 7.07001 12.0915L9.01678 7.03148C9.10525 6.80099 9.26153 6.60273 9.46499 6.46289C9.66845 6.32304 9.90954 6.24818 10.1564 6.24818C10.4033 6.24818 10.6444 6.32304 10.8479 6.46289C11.0513 6.60273 11.2076 6.80099 11.2961 7.03148L13.2414 12.0901C13.2808 12.192 13.3411 12.2846 13.4183 12.3619C13.4956 12.4391 13.5882 12.4994 13.6901 12.5388L18.7194 14.4739C18.9593 14.5628 19.166 14.7235 19.3113 14.934C19.4565 15.1446 19.5334 15.3948 19.5314 15.6506C19.5277 15.8932 19.4513 16.1291 19.312 16.3278C19.1727 16.5264 18.977 16.6787 18.7502 16.7649L13.6916 18.7102C13.5897 18.7496 13.4971 18.8099 13.4198 18.8871C13.3425 18.9644 13.2823 19.057 13.2429 19.1589L11.2961 24.219C11.2082 24.4497 11.052 24.6482 10.8484 24.7878C10.6447 24.9274 10.4033 25.0015 10.1564 25.0002ZM4.29706 8.59398C4.15231 8.59398 4.01096 8.55011 3.89163 8.46818C3.7723 8.38625 3.6806 8.27008 3.6286 8.135L2.80536 5.99437C2.78752 5.94756 2.75998 5.90504 2.72455 5.86961C2.68912 5.83419 2.64661 5.80665 2.59979 5.78881L0.459167 4.96556C0.324098 4.91355 0.207955 4.82184 0.126038 4.70251C0.0441213 4.58319 0.000274658 4.44184 0.000274658 4.29711C0.000274658 4.15237 0.0441213 4.01103 0.126038 3.8917C0.207955 3.77237 0.324098 3.68066 0.459167 3.62865L2.59979 2.80541C2.64656 2.78748 2.68904 2.75992 2.72445 2.7245C2.75987 2.68908 2.78743 2.64661 2.80536 2.59984L3.62128 0.478259C3.66729 0.353357 3.74647 0.243357 3.85031 0.160079C3.95415 0.076802 4.07872 0.0233963 4.21063 0.00560226C4.369 -0.0136506 4.52927 0.0205187 4.66602 0.102692C4.80277 0.184865 4.90817 0.310338 4.96551 0.459216L5.78876 2.59984C5.80668 2.64661 5.83425 2.68908 5.86966 2.7245C5.90508 2.75992 5.94755 2.78748 5.99432 2.80541L8.13495 3.62865C8.27002 3.68066 8.38616 3.77237 8.46808 3.8917C8.54999 4.01103 8.59384 4.15237 8.59384 4.29711C8.59384 4.44184 8.54999 4.58319 8.46808 4.70251C8.38616 4.82184 8.27002 4.91355 8.13495 4.96556L5.99432 5.78881C5.94751 5.80665 5.90499 5.83419 5.86956 5.86961C5.83414 5.90504 5.8066 5.94756 5.78876 5.99437L4.96551 8.135C4.91352 8.27008 4.82181 8.38625 4.70248 8.46818C4.58316 8.55011 4.44181 8.59398 4.29706 8.59398ZM19.5314 12.5002C19.3735 12.5002 19.2193 12.4523 19.0892 12.3629C18.9591 12.2734 18.8591 12.1467 18.8024 11.9993L17.6872 9.10033C17.6676 9.04925 17.6374 9.00286 17.5987 8.96416C17.5601 8.92547 17.5137 8.89534 17.4626 8.87572L14.5637 7.76049C14.4164 7.70374 14.2897 7.60371 14.2004 7.47358C14.1111 7.34345 14.0633 7.18932 14.0633 7.03148C14.0633 6.87365 14.1111 6.71952 14.2004 6.58939C14.2897 6.45925 14.4164 6.35923 14.5637 6.30248L17.4626 5.18724C17.5137 5.16763 17.5601 5.13749 17.5987 5.0988C17.6374 5.06011 17.6676 5.01372 17.6872 4.96263L18.7941 2.08422C18.8447 1.9481 18.9311 1.82822 19.0444 1.73734C19.1576 1.64646 19.2934 1.58798 19.4372 1.5681C19.61 1.54718 19.7849 1.58458 19.934 1.67437C20.0832 1.76416 20.198 1.90119 20.2604 2.06371L21.3757 4.96263C21.3953 5.01372 21.4254 5.06011 21.4641 5.0988C21.5028 5.13749 21.5492 5.16763 21.6003 5.18724L24.4992 6.30248C24.6465 6.35923 24.7731 6.45925 24.8624 6.58939C24.9517 6.71952 24.9996 6.87365 24.9996 7.03148C24.9996 7.18932 24.9517 7.34345 24.8624 7.47358C24.7731 7.60371 24.6465 7.70374 24.4992 7.76049L21.6003 8.87572C21.5492 8.89534 21.5028 8.92547 21.4641 8.96416C21.4254 9.00286 21.3953 9.04925 21.3757 9.10033L20.2604 11.9993C20.2038 12.1467 20.1038 12.2734 19.9737 12.3629C19.8435 12.4523 19.6893 12.5002 19.5314 12.5002Z" fill="white"/>
</g>
<defs>
<clipPath id="clip0_23_67">
<rect width="25" height="25" fill="white"/>
</clipPath>
</defs>
</svg>
