<svg width="46" height="45" viewBox="0 0 46 45" fill="none" xmlns="http://www.w3.org/2000/svg">
<path d="M45.6 22.5C45.6 34.9258 35.5258 45 23.1 45C10.6741 45 0.599976 34.9258 0.599976 22.5C0.599976 10.0742 10.6741 0 23.1 0C35.5258 0 45.6 10.0742 45.6 22.5ZM22.597 12.6173C22.4356 12.7774 22.3073 12.9677 22.2194 13.1774C22.1316 13.387 22.0859 13.6119 22.085 13.8393C22.0841 14.0666 22.128 14.2919 22.2142 14.5022C22.3003 14.7126 22.4271 14.9039 22.5872 15.0653L28.2468 20.7692H13.7971C13.3381 20.7692 12.8978 20.9516 12.5733 21.2762C12.2487 21.6007 12.0663 22.041 12.0663 22.5C12.0663 22.959 12.2487 23.3993 12.5733 23.7238C12.8978 24.0484 13.3381 24.2308 13.7971 24.2308H28.2468L22.5872 29.9347C22.4271 30.0963 22.3004 30.2877 22.2143 30.4982C22.1282 30.7087 22.0844 30.9341 22.0854 31.1615C22.0864 31.3889 22.1322 31.6139 22.2202 31.8236C22.3081 32.0333 22.4365 32.2237 22.5981 32.3838C22.7596 32.5439 22.951 32.6706 23.1615 32.7567C23.372 32.8428 23.5974 32.8866 23.8248 32.8856C24.2841 32.8835 24.7238 32.6992 25.0471 32.373L33.635 23.7191C33.9567 23.3949 34.1372 22.9567 34.1372 22.5C34.1372 22.0433 33.9567 21.6051 33.635 21.2809L25.0471 12.627C24.887 12.4653 24.6965 12.3368 24.4867 12.2487C24.2768 12.1607 24.0516 12.1149 23.8241 12.114C23.5965 12.1131 23.3709 12.1571 23.1604 12.2435C22.9498 12.3298 22.7584 12.4569 22.597 12.6173Z" fill="white"/>
</svg>
