<svg width="25" height="25" viewBox="0 0 25 25" fill="none" xmlns="http://www.w3.org/2000/svg">
<path d="M10.1564 25.0004C9.90953 25.0016 9.66813 24.9275 9.46448 24.7879C9.26084 24.6483 9.10465 24.4498 9.01678 24.2191L7.07147 19.1605C7.03207 19.0586 6.9718 18.966 6.89453 18.8887C6.81725 18.8115 6.72468 18.7512 6.62274 18.7118L1.56268 16.765C1.33219 16.6765 1.13393 16.5203 0.994087 16.3168C0.854241 16.1133 0.779378 15.8722 0.779378 15.6254C0.779378 15.3785 0.854241 15.1374 0.994087 14.9339C1.13393 14.7304 1.33219 14.5742 1.56268 14.4857L6.62128 12.5404C6.72321 12.501 6.81578 12.4407 6.89306 12.3634C6.97034 12.2862 7.03061 12.1936 7.07001 12.0917L9.01678 7.0316C9.10525 6.80111 9.26153 6.60285 9.46499 6.46301C9.66845 6.32316 9.90954 6.2483 10.1564 6.2483C10.4033 6.2483 10.6444 6.32316 10.8479 6.46301C11.0513 6.60285 11.2076 6.80111 11.2961 7.0316L13.2414 12.0902C13.2808 12.1921 13.3411 12.2847 13.4183 12.362C13.4956 12.4393 13.5882 12.4995 13.6901 12.5389L18.7194 14.474C18.9593 14.5629 19.166 14.7236 19.3113 14.9341C19.4565 15.1447 19.5334 15.3949 19.5314 15.6507C19.5277 15.8933 19.4513 16.1292 19.312 16.3279C19.1727 16.5265 18.977 16.6788 18.7502 16.765L13.6916 18.7103C13.5897 18.7497 13.4971 18.81 13.4198 18.8873C13.3425 18.9645 13.2823 19.0571 13.2429 19.159L11.2961 24.2191C11.2082 24.4498 11.052 24.6483 10.8484 24.7879C10.6447 24.9275 10.4033 25.0016 10.1564 25.0004ZM4.29706 8.5941C4.15231 8.5941 4.01096 8.55024 3.89163 8.4683C3.7723 8.38637 3.6806 8.27021 3.6286 8.13512L2.80536 5.99449C2.78752 5.94768 2.75998 5.90516 2.72455 5.86974C2.68912 5.83431 2.64661 5.80677 2.59979 5.78893L0.459167 4.96569C0.324098 4.91367 0.207955 4.82196 0.126038 4.70263C0.0441213 4.58331 0.000274658 4.44197 0.000274658 4.29723C0.000274658 4.15249 0.0441213 4.01115 0.126038 3.89182C0.207955 3.7725 0.324098 3.68079 0.459167 3.62877L2.59979 2.80553C2.64656 2.78761 2.68904 2.76004 2.72445 2.72462C2.75987 2.68921 2.78743 2.64673 2.80536 2.59996L3.62128 0.478381C3.66729 0.353479 3.74647 0.243479 3.85031 0.160201C3.95415 0.076924 4.07872 0.0235184 4.21063 0.00572433C4.369 -0.0135285 4.52927 0.0206407 4.66602 0.102814C4.80277 0.184987 4.90817 0.31046 4.96551 0.459338L5.78876 2.59996C5.80668 2.64673 5.83425 2.68921 5.86966 2.72462C5.90508 2.76004 5.94755 2.78761 5.99432 2.80553L8.13495 3.62877C8.27002 3.68079 8.38616 3.7725 8.46808 3.89182C8.54999 4.01115 8.59384 4.15249 8.59384 4.29723C8.59384 4.44197 8.54999 4.58331 8.46808 4.70263C8.38616 4.82196 8.27002 4.91367 8.13495 4.96569L5.99432 5.78893C5.94751 5.80677 5.90499 5.83431 5.86956 5.86974C5.83414 5.90516 5.8066 5.94768 5.78876 5.99449L4.96551 8.13512C4.91352 8.27021 4.82181 8.38637 4.70248 8.4683C4.58316 8.55024 4.44181 8.5941 4.29706 8.5941ZM19.5314 12.5004C19.3735 12.5003 19.2193 12.4524 19.0892 12.363C18.9591 12.2735 18.8591 12.1468 18.8024 11.9994L17.6872 9.10045C17.6676 9.04937 17.6374 9.00298 17.5987 8.96429C17.5601 8.92559 17.5137 8.89546 17.4626 8.87584L14.5637 7.76061C14.4164 7.70386 14.2897 7.60383 14.2004 7.4737C14.1111 7.34357 14.0633 7.18944 14.0633 7.0316C14.0633 6.87377 14.1111 6.71964 14.2004 6.58951C14.2897 6.45938 14.4164 6.35935 14.5637 6.3026L17.4626 5.18737C17.5137 5.16775 17.5601 5.13762 17.5987 5.09892C17.6374 5.06023 17.6676 5.01384 17.6872 4.96276L18.7941 2.08434C18.8447 1.94822 18.9311 1.82835 19.0444 1.73747C19.1576 1.64659 19.2934 1.5881 19.4372 1.56822C19.61 1.5473 19.7849 1.58471 19.934 1.67449C20.0832 1.76428 20.198 1.90131 20.2604 2.06383L21.3757 4.96276C21.3953 5.01384 21.4254 5.06023 21.4641 5.09892C21.5028 5.13762 21.5492 5.16775 21.6003 5.18737L24.4992 6.3026C24.6465 6.35935 24.7731 6.45938 24.8624 6.58951C24.9517 6.71964 24.9996 6.87377 24.9996 7.0316C24.9996 7.18944 24.9517 7.34357 24.8624 7.4737C24.7731 7.60383 24.6465 7.70386 24.4992 7.76061L21.6003 8.87584C21.5492 8.89546 21.5028 8.92559 21.4641 8.96429C21.4254 9.00298 21.3953 9.04937 21.3757 9.10045L20.2604 11.9994C20.2038 12.1468 20.1038 12.2735 19.9737 12.363C19.8435 12.4524 19.6893 12.5003 19.5314 12.5004Z" fill="url(#paint0_linear_23_133)"/>
<defs>
<linearGradient id="paint0_linear_23_133" x1="0.000274658" y1="25.0004" x2="26.8806" y2="22.7808" gradientUnits="userSpaceOnUse">
<stop stop-color="#1D1CE5"/>
<stop offset="1" stop-color="#9900F0" stop-opacity="0.7"/>
</linearGradient>
</defs>
</svg>
