<svg id="Слой_1" data-name="Слой 1" xmlns="http://www.w3.org/2000/svg" xmlns:xlink="http://www.w3.org/1999/xlink" viewBox="0 0 355 105"><defs><style>.cls-1{fill:url(#Безымянный_градиент_3);}</style><linearGradient id="Безымянный_градиент_3" x1="4.6" y1="73.46" x2="352.7" y2="5.17" gradientUnits="userSpaceOnUse"><stop offset="0" stop-color="#1d1ce5"/><stop offset="0.7" stop-color="#9900f0"/></linearGradient></defs><title>easyOlogoМонтажная область 1</title><path class="cls-1" d="M19,63.91H62.1L59,77.65H.13L17.63.12h57L71.54,13.74H30.32L26.59,30.25H64.53L61.46,43.87H23.51ZM123,24.45q4.8,5.81,2.3,16.89l-8.19,36.31H103c0-.67,0-1.39,0-2.15a18.3,18.3,0,0,1,.19-2.52A22.64,22.64,0,0,1,95,77.33a35.81,35.81,0,0,1-10.54,1.45c-5.79,0-10.12-1.43-13-4.28s-3.69-6.81-2.55-11.85A23.7,23.7,0,0,1,73,53.19a19.62,19.62,0,0,1,6.73-5.54,35.28,35.28,0,0,1,9.07-3c3.38-.67,7-1.26,10.92-1.76a25.57,25.57,0,0,0,7.58-2,5.75,5.75,0,0,0,3.46-3.91A4.15,4.15,0,0,0,108.88,32a11.72,11.72,0,0,0-6.31-1.64,12.15,12.15,0,0,0-7.27,2.33A12.82,12.82,0,0,0,90.67,39H76.18A28.6,28.6,0,0,1,86.11,24q7-5.35,19.86-5.36Q118.2,18.65,123,24.45ZM107.33,55.08c.15-.67.33-1.59.56-2.77s.37-2.1.44-2.77q-2.7,1.89-8.63,3-8.16,1.52-11.4,3.6a8.91,8.91,0,0,0-4.07,5.73q-1.44,6.44,5.36,6.43a21,21,0,0,0,5.79-.82A17.9,17.9,0,0,0,100.67,65a16.32,16.32,0,0,0,6.66-10Zm67.14-9.32Q171.1,44,158.16,41q-8.9-1.89-8.13-5.3a6.28,6.28,0,0,1,3.63-4.09A14.54,14.54,0,0,1,160.39,30q9.08,0,8.5,7.56h15a16.79,16.79,0,0,0-.43-7.88,14.21,14.21,0,0,0-3.79-6.11,18,18,0,0,0-6.74-3.91,28.52,28.52,0,0,0-9.14-1.38,35.79,35.79,0,0,0-11.28,1.64,30,30,0,0,0-8.6,4.34A24.55,24.55,0,0,0,138,30.5a22.33,22.33,0,0,0-3.16,7.31q-2.12,9.33,6.12,13.62,3.26,1.77,16,4.91a16.67,16.67,0,0,1,6.36,2.53c1.29,1,1.82,2,1.59,3q-.6,2.65-4.07,4.35a17.5,17.5,0,0,1-7.76,1.7c-3.53,0-6.17-.77-7.92-2.33s-2.32-3.68-1.71-6.37H127.81a15.5,15.5,0,0,0,.41,8.26,14.79,14.79,0,0,0,4.36,6.37A21.28,21.28,0,0,0,140.29,78a34.46,34.46,0,0,0,10.32,1.45q11.47,0,19.64-5.17a23,23,0,0,0,10.38-15Q182.65,50.3,174.47,45.76Zm49.78,9.55A13.17,13.17,0,0,1,219.3,63a14.56,14.56,0,0,1-9.2,3q-9.71,0-7.28-10.74l7.94-35.14H195.63l-8.42,37.31a20.74,20.74,0,0,0-.36,8.57,14.72,14.72,0,0,0,2.93,6.56,14.07,14.07,0,0,0,5.72,4.22,21.14,21.14,0,0,0,8.06,1.45,24.54,24.54,0,0,0,10.06-2.12,16.41,16.41,0,0,0,7.28-6l-2.09,9.23a16.55,16.55,0,0,1-5.23,8.93,14.66,14.66,0,0,1-3.89,2.44,10.61,10.61,0,0,1-4.1.87c-4,0-6.83-.94-8.38-2.8s-1.94-4.55-1.15-8H181.94q-2.59,11.46,2.35,17.77t17.55,6.31a33.93,33.93,0,0,0,10.72-1.71,31.69,31.69,0,0,0,9.52-5A32.39,32.39,0,0,0,229.53,90,33.36,33.36,0,0,0,234,79.16l13.32-59H232.19ZM354.67,7.93l-1.17,5.2A10.09,10.09,0,0,1,350,18.64a9.65,9.65,0,0,1-6,2.29,10.34,10.34,0,0,0-9.56,7.81l-1.18,5.2a10.33,10.33,0,0,1-9.56,7.8h-4.18Q315,59.35,304.66,68.25q-10.95,9.41-28.1,9.4T252.71,68q-6.69-9.69-2.45-28.49a64.48,64.48,0,0,1,6-16.54,45.85,45.85,0,0,1,9.54-12.35,40.18,40.18,0,0,1,12.7-7.74A43.61,43.61,0,0,1,294,.12h54.62C352.94.12,355.65,3.62,354.67,7.93ZM304.88,39.78q2.91-12.91-.67-19.6T291,13.49H291a22,22,0,0,0-16.19,6.69q-6.66,6.7-9.58,19.6t.89,18.87q3.81,6,13.39,6a22.84,22.84,0,0,0,8.09-1.48,22.39,22.39,0,0,0,7.28-4.5,29.15,29.15,0,0,0,5.95-7.75,39.93,39.93,0,0,0,3.57-9.16C304.56,41.11,304.73,40.44,304.88,39.78Z"/></svg>